<mxfile host="app.diagrams.net" modified="2022-11-18T17:33:15.721Z" agent="5.0 (Windows NT 10.0; Win64; x64) AppleWebKit/537.36 (KHTML, like Gecko) Chrome/107.0.0.0 Safari/537.36" etag="vjBCPtHNk9x6OEVeLMkR" version="20.5.3" type="github">
  <diagram id="KRAedM-zn4nrtWgpOcsq" name="Page-1">
    <mxGraphModel dx="782" dy="1605" grid="1" gridSize="10" guides="1" tooltips="1" connect="1" arrows="1" fold="1" page="1" pageScale="1" pageWidth="827" pageHeight="1169" math="0" shadow="0">
      <root>
        <mxCell id="0" />
        <mxCell id="1" parent="0" />
        <mxCell id="bdGdkLb2WiCmZHj7Uib8-1" value="Referrer" style="shape=umlActor;verticalLabelPosition=bottom;verticalAlign=top;html=1;outlineConnect=0;" vertex="1" parent="1">
          <mxGeometry x="150" y="120" width="30" height="60" as="geometry" />
        </mxCell>
        <mxCell id="bdGdkLb2WiCmZHj7Uib8-2" value="Consultant" style="shape=umlActor;verticalLabelPosition=bottom;verticalAlign=top;html=1;outlineConnect=0;" vertex="1" parent="1">
          <mxGeometry x="770" y="160" width="30" height="60" as="geometry" />
        </mxCell>
        <mxCell id="bdGdkLb2WiCmZHj7Uib8-3" value="" style="whiteSpace=wrap;html=1;" vertex="1" parent="1">
          <mxGeometry x="230" y="-15" width="450" height="495" as="geometry" />
        </mxCell>
        <mxCell id="bdGdkLb2WiCmZHj7Uib8-4" value="Makes referral" style="ellipse;whiteSpace=wrap;html=1;" vertex="1" parent="1">
          <mxGeometry x="330" width="120" height="80" as="geometry" />
        </mxCell>
        <mxCell id="bdGdkLb2WiCmZHj7Uib8-5" value="Traiges referral" style="ellipse;whiteSpace=wrap;html=1;" vertex="1" parent="1">
          <mxGeometry x="330" y="110" width="120" height="80" as="geometry" />
        </mxCell>
        <mxCell id="bdGdkLb2WiCmZHj7Uib8-6" value="Sets outcome" style="ellipse;whiteSpace=wrap;html=1;" vertex="1" parent="1">
          <mxGeometry x="330" y="260" width="120" height="80" as="geometry" />
        </mxCell>
        <mxCell id="bdGdkLb2WiCmZHj7Uib8-7" value="Writes referral letter" style="ellipse;whiteSpace=wrap;html=1;" vertex="1" parent="1">
          <mxGeometry x="330" y="-150" width="120" height="80" as="geometry" />
        </mxCell>
        <mxCell id="bdGdkLb2WiCmZHj7Uib8-8" value="&amp;lt;&amp;lt;include&amp;gt;&amp;gt;" style="html=1;verticalAlign=bottom;endArrow=open;dashed=1;endSize=8;rounded=0;exitX=0.5;exitY=1;exitDx=0;exitDy=0;entryX=0.5;entryY=0;entryDx=0;entryDy=0;" edge="1" parent="1" source="bdGdkLb2WiCmZHj7Uib8-5" target="bdGdkLb2WiCmZHj7Uib8-6">
          <mxGeometry x="0.1429" y="40" relative="1" as="geometry">
            <mxPoint x="410" y="360" as="sourcePoint" />
            <mxPoint x="380" y="270" as="targetPoint" />
            <mxPoint as="offset" />
          </mxGeometry>
        </mxCell>
        <mxCell id="bdGdkLb2WiCmZHj7Uib8-9" value="" style="endArrow=none;html=1;rounded=0;entryX=0;entryY=0.5;entryDx=0;entryDy=0;" edge="1" parent="1" target="bdGdkLb2WiCmZHj7Uib8-4">
          <mxGeometry width="50" height="50" relative="1" as="geometry">
            <mxPoint x="190" y="130" as="sourcePoint" />
            <mxPoint x="270" y="80" as="targetPoint" />
          </mxGeometry>
        </mxCell>
        <mxCell id="bdGdkLb2WiCmZHj7Uib8-10" value="" style="endArrow=none;html=1;rounded=0;entryX=0;entryY=0.5;entryDx=0;entryDy=0;" edge="1" parent="1" target="bdGdkLb2WiCmZHj7Uib8-7">
          <mxGeometry width="50" height="50" relative="1" as="geometry">
            <mxPoint x="190" y="130" as="sourcePoint" />
            <mxPoint x="230" y="60" as="targetPoint" />
          </mxGeometry>
        </mxCell>
        <mxCell id="bdGdkLb2WiCmZHj7Uib8-11" value="" style="endArrow=none;html=1;rounded=0;exitX=1;exitY=0.5;exitDx=0;exitDy=0;" edge="1" parent="1" source="bdGdkLb2WiCmZHj7Uib8-5">
          <mxGeometry width="50" height="50" relative="1" as="geometry">
            <mxPoint x="490" y="160" as="sourcePoint" />
            <mxPoint x="760" y="190" as="targetPoint" />
          </mxGeometry>
        </mxCell>
        <mxCell id="bdGdkLb2WiCmZHj7Uib8-12" value="" style="endArrow=none;html=1;rounded=0;exitX=1;exitY=0.5;exitDx=0;exitDy=0;" edge="1" parent="1" source="bdGdkLb2WiCmZHj7Uib8-6">
          <mxGeometry width="50" height="50" relative="1" as="geometry">
            <mxPoint x="530" y="240" as="sourcePoint" />
            <mxPoint x="760" y="190" as="targetPoint" />
          </mxGeometry>
        </mxCell>
        <mxCell id="bdGdkLb2WiCmZHj7Uib8-13" value="Updates referral information" style="ellipse;whiteSpace=wrap;html=1;" vertex="1" parent="1">
          <mxGeometry x="330" y="380" width="120" height="80" as="geometry" />
        </mxCell>
        <mxCell id="bdGdkLb2WiCmZHj7Uib8-14" value="" style="endArrow=none;html=1;rounded=0;entryX=0;entryY=0.5;entryDx=0;entryDy=0;" edge="1" parent="1" target="bdGdkLb2WiCmZHj7Uib8-13">
          <mxGeometry width="50" height="50" relative="1" as="geometry">
            <mxPoint x="190" y="130" as="sourcePoint" />
            <mxPoint x="260" y="370" as="targetPoint" />
          </mxGeometry>
        </mxCell>
        <mxCell id="bdGdkLb2WiCmZHj7Uib8-15" value="&amp;lt;&amp;lt;include&amp;gt;&amp;gt;" style="html=1;verticalAlign=bottom;endArrow=open;dashed=1;endSize=8;rounded=0;exitX=0.5;exitY=1;exitDx=0;exitDy=0;entryX=0.5;entryY=0;entryDx=0;entryDy=0;" edge="1" parent="1">
          <mxGeometry x="-0.1429" y="-40" relative="1" as="geometry">
            <mxPoint x="389.56999999999994" as="sourcePoint" />
            <mxPoint x="389.56999999999994" y="-70" as="targetPoint" />
            <mxPoint y="-1" as="offset" />
          </mxGeometry>
        </mxCell>
        <mxCell id="bdGdkLb2WiCmZHj7Uib8-16" value="Matches patient demographics" style="ellipse;whiteSpace=wrap;html=1;" vertex="1" parent="1">
          <mxGeometry x="500" y="40" width="120" height="80" as="geometry" />
        </mxCell>
        <mxCell id="bdGdkLb2WiCmZHj7Uib8-17" value="Referral Management System" style="shape=umlActor;verticalLabelPosition=bottom;verticalAlign=top;html=1;outlineConnect=0;" vertex="1" parent="1">
          <mxGeometry x="770" y="50" width="30" height="60" as="geometry" />
        </mxCell>
        <mxCell id="bdGdkLb2WiCmZHj7Uib8-18" value="" style="endArrow=none;html=1;rounded=0;exitX=1;exitY=0.5;exitDx=0;exitDy=0;" edge="1" parent="1" source="bdGdkLb2WiCmZHj7Uib8-16">
          <mxGeometry width="50" height="50" relative="1" as="geometry">
            <mxPoint x="690" y="80" as="sourcePoint" />
            <mxPoint x="750" y="80" as="targetPoint" />
          </mxGeometry>
        </mxCell>
        <mxCell id="bdGdkLb2WiCmZHj7Uib8-19" value="&lt;font color=&quot;#0066cc&quot;&gt;&lt;b&gt;Bounding boxes&lt;/b&gt; indicate which use cases are in scope for the IT system&lt;/font&gt;" style="text;html=1;strokeColor=none;fillColor=none;align=center;verticalAlign=middle;whiteSpace=wrap;rounded=0;fontStyle=2" vertex="1" parent="1">
          <mxGeometry x="477.5" y="-90" width="165" height="30" as="geometry" />
        </mxCell>
        <mxCell id="bdGdkLb2WiCmZHj7Uib8-20" value="&lt;font color=&quot;#0066cc&quot;&gt;&lt;b&gt;Include &lt;/b&gt;tags indicate a use case which is part of another&lt;/font&gt;" style="text;html=1;strokeColor=none;fillColor=none;align=center;verticalAlign=middle;whiteSpace=wrap;rounded=0;fontStyle=2" vertex="1" parent="1">
          <mxGeometry x="465" y="200" width="145" height="30" as="geometry" />
        </mxCell>
        <mxCell id="bdGdkLb2WiCmZHj7Uib8-21" value="&lt;font color=&quot;#0066cc&quot;&gt;&lt;b&gt;Association &lt;/b&gt;lines link actors (which may be people or systems) to use cases&lt;/font&gt;" style="text;html=1;strokeColor=none;fillColor=none;align=center;verticalAlign=middle;whiteSpace=wrap;rounded=0;fontStyle=2" vertex="1" parent="1">
          <mxGeometry x="40" y="60" width="165" height="30" as="geometry" />
        </mxCell>
      </root>
    </mxGraphModel>
  </diagram>
</mxfile>
